Coordinates
version=1
nRows=19
nColumns=63
inDegrees=yes

Units are S.I. units (second, meters, Newtons, ...)
If the header above contains a line with 'inDegrees', this indicates whether rotational values are in degrees (yes) or radians (no).

endheader
time	pelvis_tilt	pelvis_list	pelvis_rotation	pelvis_tx	pelvis_ty	pelvis_tz	hip_flexion_r	hip_adduction_r	hip_rotation_r	knee_angle_r	knee_angle_r_beta	ankle_angle_r	subtalar_angle_r	mtp_angle_r	hip_flexion_l	hip_adduction_l	hip_rotation_l	knee_angle_l	knee_angle_l_beta	ankle_angle_l	subtalar_angle_l	mtp_angle_l	L5_S1_Flex_Ext	L5_S1_Lat_Bending	L5_S1_axial_rotation	L4_L5_Flex_Ext	L4_L5_Lat_Bending	L4_L5_axial_rotation	L3_L4_Flex_Ext	L3_L4_Lat_Bending	L3_L4_axial_rotation	L2_L3_Flex_Ext	L2_L3_Lat_Bending	L2_L3_axial_rotation	L1_L2_Flex_Ext	L1_L2_Lat_Bending	L1_L2_axial_rotation	L1_T12_Flex_Ext	L1_T12_Lat_Bending	L1_T12_axial_rotation	Abs_r3	Abs_r2	Abs_r1	Abs_t1	Abs_t2	neck_flexion	neck_bending	neck_rotation	arm_flex_r	arm_add_r	arm_rot_r	elbow_flex_r	pro_sup_r	wrist_flex_r	wrist_dev_r	arm_flex_l	arm_add_l	arm_rot_l	elbow_flex_l	pro_sup_l	wrist_flex_l	wrist_dev_l
2.000000	-0.319463	-7.072814	93.625927	0.204209	1.005188	0.448625	-1.220677	0.805339	-1.174407	12.634474	0.220513	31.517381	-3.586479	0.000000	-3.817209	1.267573	7.628912	7.232070	0.126223	27.270681	-9.208416	0.000000	-0.196955	0.011614	-1.131528	-0.365764	0.015447	-1.202248	-0.323577	0.028239	-1.202248	-0.225099	0.028239	-0.990087	-0.182892	0.023684	-0.919366	-0.112540	0.017991	-0.848646	-1.406826	0.131385	-6.293217	0.000000	0.000000	10.317664	3.028888	-0.820886	11.300769	-9.193078	69.947499	39.684955	74.544353	7.213739	3.889619	4.018924	-5.720882	43.399039	45.879433	76.137128	13.682103	14.913973
2.016949	-0.339023	-7.144349	93.620968	0.204312	1.005073	0.448721	-1.153826	0.774268	-1.316325	12.656411	0.220896	31.738034	-3.432766	0.000000	-3.759180	1.300724	7.782784	7.231734	0.126218	27.136241	-9.341345	0.000000	-0.205666	0.005542	-1.140468	-0.381942	0.007371	-1.211747	-0.337888	0.013475	-1.211747	-0.235055	0.013475	-0.997909	-0.190981	0.011302	-0.926630	-0.117517	0.008585	-0.855351	-1.469049	0.062695	-6.342941	0.000000	0.000000	10.151098	3.185186	-0.737415	11.325003	-9.203808	70.032258	39.710134	74.436208	6.814599	3.293285	3.951309	-5.757863	43.108170	46.137163	76.137109	13.585637	14.765081
2.033898	-0.368652	-7.199041	93.606629	0.204444	1.004934	0.448731	-1.114839	0.733952	-1.444047	12.663576	0.221021	31.966849	-3.261378	0.000000	-3.726440	1.336704	7.860254	7.202728	0.125711	27.097623	-9.359505	0.000000	-0.212748	-0.002214	-1.145479	-0.395095	-0.002945	-1.217071	-0.349524	-0.005383	-1.217071	-0.243150	-0.005383	-1.002294	-0.197558	-0.004515	-0.930702	-0.121564	-0.003430	-0.859109	-1.519640	-0.025047	-6.370809	0.000000	0.000000	9.965317	3.305479	-0.685099	11.298173	-9.206298	70.020547	39.720867	74.287687	6.444769	2.647910	3.879811	-5.795210	42.819668	46.411034	76.215030	13.510639	14.654822
2.050847	-0.405264	-7.221186	93.573495	0.204613	1.004792	0.448663	-1.115094	0.685911	-1.566848	12.661539	0.220986	32.192692	-3.056436	0.000000	-3.733838	1.373650	7.865104	7.147274	0.124743	27.151579	-9.287592	0.000000	-0.219233	-0.011560	-1.143030	-0.407138	-0.015374	-1.214470	-0.360178	-0.028106	-1.214470	-0.250561	-0.028106	-1.000151	-0.203580	-0.023573	-0.928712	-0.125270	-0.017906	-0.857273	-1.565959	-0.130766	-6.357191	0.000000	0.000000	9.727121	3.400281	-0.678673	11.233249	-9.208805	69.958892	39.733886	74.085675	6.070441	1.989429	3.824171	-5.843447	42.615035	46.694652	76.259114	13.380652	14.601732
2.067797	-0.445934	-7.200832	93.530472	0.204791	1.004666	0.448559	-1.161072	0.635862	-1.675636	12.652941	0.220835	32.402252	-2.845736	0.000000	-3.785906	1.409025	7.813010	7.075979	0.123499	27.287510	-9.142145	0.000000	-0.226781	-0.021729	-1.138105	-0.421155	-0.028900	-1.209237	-0.372578	-0.052833	-1.209237	-0.259188	-0.052833	-0.995842	-0.210589	-0.044310	-0.924710	-0.129583	-0.033659	-0.853579	-1.619874	-0.245806	-6.329799	0.000000	0.000000	9.422741	3.495820	-0.654316	11.173295	-9.206503	69.919274	39.734135	73.870439	5.727921	1.333618	3.785628	-5.893685	42.453897	46.956021	76.337457	13.279915	14.540345
2.084746	-0.477603	-7.143935	93.506540	0.204938	1.004566	0.448461	-1.245640	0.593886	-1.845028	12.634291	0.220510	32.594565	-2.568625	0.000000	-3.853715	1.418063	7.559546	7.029974	0.122696	27.553816	-8.689675	0.000000	-0.234554	-0.031378	-1.135167	-0.435591	-0.041733	-1.206115	-0.385350	-0.076294	-1.206115	-0.268072	-0.076294	-0.993271	-0.217807	-0.063987	-0.922323	-0.134024	-0.048605	-0.851375	-1.675399	-0.354960	-6.313457	0.000000	0.000000	9.018977	3.592108	-0.636925	11.140496	-9.210985	69.963737	39.739474	73.583329	5.359811	0.743124	3.780107	-5.945785	42.378038	47.184311	76.384100	13.172479	14.498926
2.101695	-0.507835	-7.050961	93.469994	0.205076	1.004505	0.448382	-1.359301	0.559534	-1.953019	12.616496	0.220199	32.743889	-2.357112	0.000000	-3.962376	1.437304	7.479012	6.967305	0.121602	27.774479	-8.519046	0.000000	-0.243295	-0.041052	-1.131481	-0.451824	-0.054599	-1.202198	-0.399710	-0.099813	-1.202198	-0.278062	-0.099813	-0.990046	-0.225924	-0.083713	-0.919328	-0.139019	-0.063589	-0.848611	-1.737834	-0.464385	-6.292956	0.000000	0.000000	8.500443	3.718400	-0.592042	11.149755	-9.212939	70.078413	39.735555	73.485088	4.993402	0.180075	3.789741	-5.990664	42.307539	47.372005	76.483346	13.118839	14.474282
2.118644	-0.522674	-6.932663	93.454371	0.205182	1.004486	0.448372	-1.486903	0.547674	-2.047691	12.600975	0.219929	32.845781	-2.186819	0.000000	-4.071607	1.433449	7.336208	6.937480	0.121082	28.035554	-8.264931	0.000000	-0.252943	-0.049194	-1.133402	-0.469741	-0.065428	-1.204240	-0.415560	-0.119611	-1.204240	-0.289089	-0.119611	-0.991727	-0.234883	-0.100317	-0.920890	-0.144532	-0.076202	-0.850052	-1.806747	-0.556494	-6.303645	0.000000	0.000000	7.868987	3.866970	-0.551366	11.203192	-9.210011	70.246649	39.723701	73.377625	4.691908	-0.257739	3.804055	-6.013757	42.187831	47.504160	76.694046	13.149490	14.450994
2.135593	-0.520278	-6.800415	93.475847	0.205213	1.004513	0.448444	-1.618466	0.550119	-2.214613	12.583305	0.219620	32.907392	-1.956361	0.000000	-4.176919	1.411117	7.239586	6.925095	0.120866	28.274046	-8.071587	0.000000	-0.262642	-0.055123	-1.140748	-0.487753	-0.073313	-1.212045	-0.431495	-0.134025	-1.212045	-0.300174	-0.134025	-0.998155	-0.243890	-0.112406	-0.926858	-0.150074	-0.085385	-0.855561	-1.876027	-0.623560	-6.344500	0.000000	0.000000	7.123220	4.040026	-0.543618	11.285652	-9.218593	70.425453	39.740026	73.382815	4.383427	-0.546751	3.868664	-6.043329	42.182081	47.571782	76.804640	13.195327	14.423208
2.152542	-0.496430	-6.661756	93.546601	0.205168	1.004574	0.448629	-1.742425	0.577712	-2.419350	12.566733	0.219331	32.914354	-1.745858	0.000000	-4.254399	1.355756	7.035481	6.959009	0.121458	28.561438	-7.703373	0.000000	-0.273141	-0.058158	-1.157158	-0.507250	-0.077350	-1.229481	-0.448743	-0.141405	-1.229481	-0.312173	-0.141405	-1.012514	-0.253639	-0.118596	-0.940191	-0.156073	-0.090087	-0.867869	-1.951018	-0.657895	-6.435768	0.000000	0.000000	6.305396	4.215957	-0.578217	11.395257	-9.227304	70.605485	39.768814	73.196799	4.173529	-0.612417	3.956041	-6.068249	42.205673	47.586303	76.884073	13.278984	14.398033
2.169492	-0.448918	-6.519732	93.649332	0.205062	1.004650	0.448895	-1.853998	0.634286	-2.614584	12.558374	0.219185	32.868508	-1.597357	0.000000	-4.314830	1.268777	6.752711	7.022103	0.122559	28.881495	-7.210907	0.000000	-0.284153	-0.057750	-1.181065	-0.527700	-0.076807	-1.254882	-0.466835	-0.140413	-1.254882	-0.324758	-0.140413	-1.033432	-0.263864	-0.117764	-0.959616	-0.162365	-0.089455	-0.885799	-2.029675	-0.653279	-6.568732	0.000000	0.000000	5.430538	4.376967	-0.652344	11.533168	-9.234977	70.819220	39.801664	72.845630	4.089942	-0.532810	4.036489	-6.083891	42.212498	47.572333	76.985809	13.356173	14.380917
2.186441	-0.372977	-6.386589	93.794561	0.204871	1.004710	0.449240	-1.941095	0.719419	-2.856214	12.562743	0.219261	32.780972	-1.468859	0.000000	-4.340906	1.147637	6.399531	7.128786	0.124421	29.227480	-6.605272	0.000000	-0.294643	-0.053092	-1.210903	-0.547181	-0.070613	-1.286584	-0.484068	-0.129089	-1.286584	-0.336747	-0.129089	-1.059540	-0.273605	-0.108266	-0.983859	-0.168359	-0.082240	-0.908177	-2.104602	-0.600593	-6.734679	0.000000	0.000000	4.550155	4.484721	-0.796726	11.660835	-9.260801	71.004524	39.886662	72.117276	4.144732	-0.156169	4.130575	-6.102612	42.283052	47.531500	76.958261	13.402174	14.377351
2.203390	-0.286214	-6.252837	93.949735	0.204638	1.004760	0.449660	-2.014704	0.817627	-3.074496	12.582755	0.219611	32.664335	-1.404630	0.000000	-4.364863	1.015038	6.020472	7.249207	0.126523	29.551355	-5.973912	0.000000	-0.307922	-0.046413	-1.248041	-0.571842	-0.061729	-1.326044	-0.505885	-0.112849	-1.326044	-0.351924	-0.112849	-1.092036	-0.285936	-0.094646	-1.014033	-0.175947	-0.071894	-0.936031	-2.199455	-0.525035	-6.941230	0.000000	0.000000	3.694710	4.567821	-0.941135	11.825606	-9.282140	71.299906	39.956221	71.401030	4.263972	0.125572	4.169560	-6.111694	42.214389	47.514025	77.049531	13.453464	14.365877
2.220339	-0.173613	-6.123606	94.137544	0.204331	1.004777	0.450176	-2.071183	0.947589	-3.266771	12.618555	0.220235	32.514493	-1.457709	0.000000	-4.374064	0.855146	5.627546	7.395728	0.129080	29.861123	-5.305946	0.000000	-0.324791	-0.036055	-1.292283	-0.603170	-0.047953	-1.373051	-0.533600	-0.087664	-1.373051	-0.371204	-0.087664	-1.130748	-0.301601	-0.073523	-1.049980	-0.185586	-0.055849	-0.969213	-2.319951	-0.407860	-7.187293	0.000000	0.000000	2.902801	4.626055	-1.098192	12.018905	-9.316764	71.644197	40.037998	70.536706	4.595807	0.471578	4.190500	-6.115280	42.085406	47.524173	77.149427	13.517457	14.419372
2.237288	-0.053475	-6.025102	94.337460	0.203987	1.004734	0.450793	-2.074860	1.087507	-3.401000	12.692282	0.221522	32.349252	-1.638833	0.000000	-4.333745	0.690250	5.209331	7.592487	0.132514	30.133439	-4.615350	0.000000	-0.343146	-0.024362	-1.338169	-0.637256	-0.032402	-1.421805	-0.563754	-0.059235	-1.421805	-0.392181	-0.059235	-1.170898	-0.318645	-0.049680	-1.087262	-0.196074	-0.037737	-1.003627	-2.451057	-0.275592	-7.442494	0.000000	0.000000	2.218800	4.730717	-1.194267	12.217739	-9.365614	72.024805	40.129079	69.481517	5.020874	0.764199	4.177572	-6.125574	41.885060	47.593527	77.341587	13.579216	14.467842
2.254237	0.075102	-5.978534	94.520000	0.203648	1.004603	0.451526	-2.004368	1.230960	-3.498291	12.800590	0.223412	32.211520	-1.861992	0.000000	-4.234414	0.524567	4.780783	7.810812	0.136324	30.363464	-3.960705	0.000000	-0.361527	-0.011447	-1.377094	-0.671392	-0.015224	-1.463163	-0.593953	-0.027832	-1.463163	-0.413189	-0.027832	-1.204958	-0.335714	-0.023343	-1.118889	-0.206577	-0.017731	-1.032821	-2.582352	-0.129490	-7.658986	0.000000	0.000000	1.654864	4.861514	-1.249805	12.426543	-9.450620	72.406705	40.270425	68.869832	5.364093	0.965148	4.151794	-6.134302	41.654227	47.692526	77.655929	13.636691	14.418718
2.271186	0.206243	-5.967215	94.703030	0.203331	1.004423	0.452361	-1.890060	1.383282	-3.519326	12.920048	0.225497	32.073426	-2.197325	0.000000	-4.089360	0.352207	4.266386	8.052103	0.140536	30.595619	-3.183910	0.000000	-0.384341	0.001374	-1.415156	-0.713760	0.001828	-1.503603	-0.631434	0.003341	-1.503603	-0.439263	0.003341	-1.238261	-0.356899	0.002802	-1.149814	-0.219612	0.002129	-1.061367	-2.745309	0.015545	-7.870671	0.000000	0.000000	1.203947	5.032248	-1.259615	12.694572	-9.546597	72.948994	40.388830	68.456039	5.556845	0.908216	4.097851	-6.141865	41.323602	47.849376	78.107651	13.715397	14.343234
2.288136	0.333213	-6.022059	94.860779	0.203052	1.004151	0.453320	-1.693851	1.517918	-3.560782	13.062767	0.227988	31.987613	-2.453937	0.000000	-3.874352	0.192755	3.787230	8.291636	0.144716	30.806379	-2.471039	0.000000	-0.408415	0.013695	-1.442015	-0.758467	0.018214	-1.532141	-0.670985	0.033298	-1.532141	-0.466777	0.033298	-1.261763	-0.379254	0.027927	-1.171637	-0.233368	0.021214	-1.081511	-2.917267	0.154921	-8.020054	0.000000	0.000000	0.861876	5.237906	-1.228605	12.947066	-9.672246	73.394293	40.542434	68.483570	5.666290	0.782919	4.054268	-6.150919	41.004688	48.039418	78.662953	13.762456	14.171134
2.305085	0.444138	-6.158182	94.974896	0.202853	1.003779	0.454354	-1.401943	1.622181	-3.617824	13.229606	0.230900	31.953120	-2.617265	0.000000	-3.579884	0.060473	3.359173	8.516078	0.148634	30.997823	-1.859555	0.000000	-0.430105	0.024701	-1.458161	-0.798748	0.032852	-1.549296	-0.706619	0.060057	-1.549296	-0.491567	0.060057	-1.275891	-0.399395	0.050370	-1.184756	-0.245762	0.038261	-1.093621	-3.072197	0.279419	-8.109856	0.000000	0.000000	0.534811	5.411992	-1.109419	13.147646	-9.795341	73.689623	40.681905	68.884158	5.684572	0.596636	4.006043	-6.163686	40.694139	48.261279	79.309184	13.755115	13.905673
